G04*
G04 #@! TF.GenerationSoftware,Altium Limited,Altium Designer,21.8.1 (53)*
G04*
G04 Layer_Physical_Order=2*
G04 Layer_Color=16711680*
%FSLAX43Y43*%
%MOMM*%
G71*
G04*
G04 #@! TF.SameCoordinates,061CAFB7-BDB9-4B98-80DD-AB2B8D11B62C*
G04*
G04*
G04 #@! TF.FilePolarity,Positive*
G04*
G01*
G75*
%ADD36C,0.600*%
%ADD38C,3.200*%
%ADD59C,0.250*%
%ADD60C,0.500*%
%ADD61C,2.000*%
%ADD62O,3.000X2.500*%
%ADD63C,0.500*%
G36*
X64745Y255D02*
X255D01*
Y64745D01*
X64745D01*
Y255D01*
D02*
G37*
%LPC*%
G36*
X62000Y63809D02*
X61647Y63774D01*
X61308Y63671D01*
X60995Y63504D01*
X60721Y63279D01*
X60496Y63005D01*
X60329Y62692D01*
X60226Y62353D01*
X60191Y62000D01*
X60226Y61647D01*
X60329Y61308D01*
X60496Y60995D01*
X60721Y60721D01*
X60995Y60496D01*
X61308Y60329D01*
X61647Y60226D01*
X62000Y60191D01*
X62353Y60226D01*
X62692Y60329D01*
X63005Y60496D01*
X63279Y60721D01*
X63504Y60995D01*
X63671Y61308D01*
X63774Y61647D01*
X63809Y62000D01*
X63774Y62353D01*
X63671Y62692D01*
X63504Y63005D01*
X63279Y63279D01*
X63005Y63504D01*
X62692Y63671D01*
X62353Y63774D01*
X62000Y63809D01*
D02*
G37*
G36*
X3000D02*
X2647Y63774D01*
X2308Y63671D01*
X1995Y63504D01*
X1721Y63279D01*
X1496Y63005D01*
X1329Y62692D01*
X1226Y62353D01*
X1191Y62000D01*
X1226Y61647D01*
X1329Y61308D01*
X1496Y60995D01*
X1721Y60721D01*
X1995Y60496D01*
X2308Y60329D01*
X2647Y60226D01*
X3000Y60191D01*
X3353Y60226D01*
X3692Y60329D01*
X4005Y60496D01*
X4279Y60721D01*
X4504Y60995D01*
X4671Y61308D01*
X4774Y61647D01*
X4809Y62000D01*
X4774Y62353D01*
X4671Y62692D01*
X4504Y63005D01*
X4279Y63279D01*
X4005Y63504D01*
X3692Y63671D01*
X3353Y63774D01*
X3000Y63809D01*
D02*
G37*
G36*
X25250Y62063D02*
X24750D01*
X24371Y62013D01*
X24019Y61867D01*
X23716Y61634D01*
X23483Y61331D01*
X23337Y60979D01*
X23287Y60600D01*
X23337Y60221D01*
X23483Y59869D01*
X23716Y59566D01*
X24019Y59333D01*
X24371Y59187D01*
X24750Y59137D01*
X25250D01*
X25629Y59187D01*
X25981Y59333D01*
X26284Y59566D01*
X26517Y59869D01*
X26663Y60221D01*
X26713Y60600D01*
X26663Y60979D01*
X26517Y61331D01*
X26284Y61634D01*
X25981Y61867D01*
X25629Y62013D01*
X25250Y62063D01*
D02*
G37*
G36*
X20250D02*
X19750D01*
X19371Y62013D01*
X19019Y61867D01*
X18716Y61634D01*
X18483Y61331D01*
X18337Y60979D01*
X18287Y60600D01*
X18337Y60221D01*
X18483Y59869D01*
X18716Y59566D01*
X19019Y59333D01*
X19371Y59187D01*
X19750Y59137D01*
X20250D01*
X20629Y59187D01*
X20981Y59333D01*
X21284Y59566D01*
X21517Y59869D01*
X21663Y60221D01*
X21713Y60600D01*
X21663Y60979D01*
X21517Y61331D01*
X21284Y61634D01*
X20981Y61867D01*
X20629Y62013D01*
X20250Y62063D01*
D02*
G37*
G36*
X36561Y59802D02*
Y58790D01*
X37573D01*
X37555Y58928D01*
X37434Y59220D01*
X37242Y59470D01*
X36991Y59663D01*
X36699Y59784D01*
X36561Y59802D01*
D02*
G37*
G36*
X37573Y58440D02*
X36561D01*
Y57427D01*
X36699Y57446D01*
X36991Y57566D01*
X37242Y57759D01*
X37434Y58009D01*
X37555Y58301D01*
X37573Y58440D01*
D02*
G37*
G36*
X33886Y59825D02*
X33573Y59784D01*
X33281Y59663D01*
X33030Y59470D01*
X32838Y59220D01*
X32777Y59073D01*
X30115D01*
X29939Y59039D01*
X29790Y58939D01*
X26876Y56024D01*
X26776Y55876D01*
X26741Y55700D01*
Y49335D01*
X26571Y49313D01*
X26219Y49167D01*
X25916Y48934D01*
X25683Y48631D01*
X25537Y48279D01*
X25487Y47900D01*
X25537Y47521D01*
X25683Y47169D01*
X25916Y46866D01*
X26219Y46633D01*
X26571Y46487D01*
X26950Y46437D01*
X27450D01*
X27829Y46487D01*
X28181Y46633D01*
X28484Y46866D01*
X28717Y47169D01*
X28863Y47521D01*
X28913Y47900D01*
X28863Y48279D01*
X28717Y48631D01*
X28484Y48934D01*
X28181Y49167D01*
X27829Y49313D01*
X27659Y49335D01*
Y55510D01*
X30305Y58156D01*
X32777D01*
X32838Y58009D01*
X33030Y57759D01*
X33281Y57566D01*
X33573Y57446D01*
X33886Y57404D01*
X34199Y57446D01*
X34491Y57566D01*
X34742Y57759D01*
X34934Y58009D01*
X35055Y58301D01*
X35072Y58429D01*
X35200D01*
X35217Y58301D01*
X35338Y58009D01*
X35530Y57759D01*
X35781Y57566D01*
X36073Y57446D01*
X36211Y57427D01*
Y58615D01*
Y59802D01*
X36073Y59784D01*
X35781Y59663D01*
X35530Y59470D01*
X35338Y59220D01*
X35217Y58928D01*
X35200Y58800D01*
X35072D01*
X35055Y58928D01*
X34934Y59220D01*
X34742Y59470D01*
X34491Y59663D01*
X34199Y59784D01*
X33886Y59825D01*
D02*
G37*
G36*
X18050Y49363D02*
X17975D01*
Y48075D01*
X19489D01*
X19463Y48279D01*
X19317Y48631D01*
X19084Y48934D01*
X18781Y49167D01*
X18429Y49313D01*
X18050Y49363D01*
D02*
G37*
G36*
X17625D02*
X17550D01*
X17171Y49313D01*
X16819Y49167D01*
X16516Y48934D01*
X16283Y48631D01*
X16137Y48279D01*
X16111Y48075D01*
X17625D01*
Y49363D01*
D02*
G37*
G36*
X22750D02*
X22250D01*
X21871Y49313D01*
X21519Y49167D01*
X21216Y48934D01*
X20983Y48631D01*
X20837Y48279D01*
X20787Y47900D01*
X20837Y47521D01*
X20983Y47169D01*
X21216Y46866D01*
X21519Y46633D01*
X21871Y46487D01*
X22250Y46437D01*
X22750D01*
X23129Y46487D01*
X23481Y46633D01*
X23784Y46866D01*
X24017Y47169D01*
X24163Y47521D01*
X24213Y47900D01*
X24163Y48279D01*
X24017Y48631D01*
X23784Y48934D01*
X23481Y49167D01*
X23129Y49313D01*
X22750Y49363D01*
D02*
G37*
G36*
X19489Y47725D02*
X17975D01*
Y46437D01*
X18050D01*
X18429Y46487D01*
X18781Y46633D01*
X19084Y46866D01*
X19317Y47169D01*
X19463Y47521D01*
X19489Y47725D01*
D02*
G37*
G36*
X17625D02*
X16111D01*
X16137Y47521D01*
X16283Y47169D01*
X16516Y46866D01*
X16819Y46633D01*
X17171Y46487D01*
X17550Y46437D01*
X17625D01*
Y47725D01*
D02*
G37*
G36*
X33900Y44858D02*
X15900D01*
X15744Y44827D01*
X15612Y44738D01*
X15523Y44606D01*
X15492Y44450D01*
Y38450D01*
X15523Y38294D01*
X15612Y38162D01*
X15744Y38073D01*
X15900Y38042D01*
X33900D01*
X34056Y38073D01*
X34188Y38162D01*
X34277Y38294D01*
X34308Y38450D01*
Y44450D01*
X34277Y44606D01*
X34188Y44738D01*
X34056Y44827D01*
X33900Y44858D01*
D02*
G37*
G36*
X35800Y31110D02*
X35605Y31071D01*
X35440Y30960D01*
X35388Y30884D01*
X34552D01*
X34425Y30858D01*
X34318Y30786D01*
X33766Y30234D01*
X33694Y30127D01*
X33669Y30000D01*
Y17700D01*
X33694Y17573D01*
X33766Y17466D01*
X35366Y15866D01*
X35473Y15794D01*
X35600Y15769D01*
X44820D01*
X44840Y15740D01*
X45005Y15629D01*
X45200Y15590D01*
X45395Y15629D01*
X45560Y15740D01*
X45671Y15905D01*
X45710Y16100D01*
X45671Y16295D01*
X45560Y16460D01*
X45466Y16524D01*
Y16676D01*
X45560Y16740D01*
X45671Y16905D01*
X45710Y17100D01*
X45671Y17295D01*
X45560Y17460D01*
X45395Y17571D01*
X45200Y17610D01*
X45005Y17571D01*
X44840Y17460D01*
X44820Y17431D01*
X36537D01*
X36131Y17837D01*
Y28920D01*
X36160Y28940D01*
X36271Y29105D01*
X36310Y29300D01*
X36271Y29495D01*
X36160Y29660D01*
X35995Y29771D01*
X35800Y29810D01*
X35605Y29771D01*
X35440Y29660D01*
X35329Y29495D01*
X35290Y29300D01*
X35329Y29105D01*
X35440Y28940D01*
X35469Y28920D01*
Y17700D01*
X35494Y17573D01*
X35566Y17466D01*
X36166Y16866D01*
X36273Y16794D01*
X36400Y16769D01*
X44820D01*
X44840Y16740D01*
X44934Y16676D01*
Y16524D01*
X44840Y16460D01*
X44820Y16431D01*
X35737D01*
X34331Y17837D01*
Y29863D01*
X34689Y30221D01*
X35468D01*
X35605Y30129D01*
X35800Y30090D01*
X35995Y30129D01*
X36160Y30240D01*
X36271Y30405D01*
X36310Y30600D01*
X36271Y30795D01*
X36160Y30960D01*
X35995Y31071D01*
X35800Y31110D01*
D02*
G37*
G36*
X50100Y31158D02*
X47500D01*
X47344Y31127D01*
X47212Y31038D01*
X47123Y30906D01*
X47092Y30750D01*
Y28050D01*
X47123Y27894D01*
X47212Y27762D01*
X47344Y27673D01*
X47500Y27642D01*
X50100D01*
X50256Y27673D01*
X50388Y27762D01*
X50477Y27894D01*
X50508Y28050D01*
Y30750D01*
X50477Y30906D01*
X50388Y31038D01*
X50256Y31127D01*
X50100Y31158D01*
D02*
G37*
G36*
X52724Y15334D02*
X52529Y15295D01*
X52364Y15184D01*
X52344Y15155D01*
X42523D01*
X42396Y15130D01*
X42288Y15058D01*
X40466Y13236D01*
X40394Y13128D01*
X40369Y13001D01*
Y8780D01*
X40340Y8760D01*
X40229Y8595D01*
X40190Y8400D01*
X40229Y8205D01*
X40340Y8040D01*
X40505Y7929D01*
X40700Y7890D01*
X40895Y7929D01*
X41060Y8040D01*
X41171Y8205D01*
X41210Y8400D01*
X41171Y8595D01*
X41060Y8760D01*
X41031Y8780D01*
Y12864D01*
X42660Y14493D01*
X52344D01*
X52364Y14463D01*
X52529Y14353D01*
X52724Y14314D01*
X52920Y14353D01*
X53085Y14463D01*
X53195Y14629D01*
X53234Y14824D01*
X53195Y15019D01*
X53085Y15184D01*
X52920Y15295D01*
X52724Y15334D01*
D02*
G37*
G36*
X41300Y29110D02*
X41105Y29071D01*
X40940Y28960D01*
X40829Y28795D01*
X40790Y28600D01*
X40829Y28405D01*
X40841Y28387D01*
Y26413D01*
X40829Y26395D01*
X40790Y26200D01*
X40829Y26005D01*
X40841Y25987D01*
Y21300D01*
X40876Y21124D01*
X40976Y20976D01*
X42076Y19876D01*
X42224Y19776D01*
X42400Y19741D01*
X52710D01*
X53541Y18910D01*
Y14140D01*
X52860Y13459D01*
X50713D01*
X50695Y13471D01*
X50500Y13510D01*
X50305Y13471D01*
X50140Y13360D01*
X50029Y13195D01*
X49990Y13000D01*
X50029Y12805D01*
X50140Y12640D01*
X50305Y12529D01*
X50500Y12490D01*
X50695Y12529D01*
X50713Y12541D01*
X53050D01*
X53226Y12576D01*
X53374Y12676D01*
X54324Y13626D01*
X54424Y13774D01*
X54459Y13950D01*
Y19100D01*
X54424Y19276D01*
X54324Y19424D01*
X53224Y20524D01*
X53076Y20624D01*
X52900Y20659D01*
X42590D01*
X41759Y21490D01*
Y25987D01*
X41771Y26005D01*
X41810Y26200D01*
X41771Y26395D01*
X41759Y26413D01*
Y28387D01*
X41771Y28405D01*
X41810Y28600D01*
X41771Y28795D01*
X41660Y28960D01*
X41495Y29071D01*
X41300Y29110D01*
D02*
G37*
G36*
X62000Y4809D02*
X61647Y4774D01*
X61308Y4671D01*
X60995Y4504D01*
X60721Y4279D01*
X60496Y4005D01*
X60329Y3692D01*
X60226Y3353D01*
X60191Y3000D01*
X60226Y2647D01*
X60329Y2308D01*
X60496Y1995D01*
X60721Y1721D01*
X60995Y1496D01*
X61308Y1329D01*
X61647Y1226D01*
X62000Y1191D01*
X62353Y1226D01*
X62692Y1329D01*
X63005Y1496D01*
X63279Y1721D01*
X63504Y1995D01*
X63671Y2308D01*
X63774Y2647D01*
X63809Y3000D01*
X63774Y3353D01*
X63671Y3692D01*
X63504Y4005D01*
X63279Y4279D01*
X63005Y4504D01*
X62692Y4671D01*
X62353Y4774D01*
X62000Y4809D01*
D02*
G37*
G36*
X3000D02*
X2647Y4774D01*
X2308Y4671D01*
X1995Y4504D01*
X1721Y4279D01*
X1496Y4005D01*
X1329Y3692D01*
X1226Y3353D01*
X1191Y3000D01*
X1226Y2647D01*
X1329Y2308D01*
X1496Y1995D01*
X1721Y1721D01*
X1995Y1496D01*
X2308Y1329D01*
X2647Y1226D01*
X3000Y1191D01*
X3353Y1226D01*
X3692Y1329D01*
X4005Y1496D01*
X4279Y1721D01*
X4504Y1995D01*
X4671Y2308D01*
X4774Y2647D01*
X4809Y3000D01*
X4774Y3353D01*
X4671Y3692D01*
X4504Y4005D01*
X4279Y4279D01*
X4005Y4504D01*
X3692Y4671D01*
X3353Y4774D01*
X3000Y4809D01*
D02*
G37*
%LPD*%
D36*
X41300Y28600D02*
D03*
X50500Y13000D02*
D03*
X41300Y26200D02*
D03*
X52724Y14824D02*
D03*
X40700Y8400D02*
D03*
X45200Y17100D02*
D03*
Y16100D02*
D03*
X35800Y30600D02*
D03*
Y29300D02*
D03*
D38*
X62000Y62000D02*
D03*
X3000D02*
D03*
X62000Y3000D02*
D03*
X3000D02*
D03*
D59*
X34552Y30552D02*
X35752D01*
X34000Y30000D02*
X34552Y30552D01*
X34000Y17700D02*
Y30000D01*
Y17700D02*
X35600Y16100D01*
X42523Y14824D02*
X52724D01*
X40700Y13001D02*
X42523Y14824D01*
X40700Y8400D02*
Y13001D01*
X35800Y17700D02*
Y29300D01*
Y17700D02*
X36400Y17100D01*
X45200D01*
X35600Y16100D02*
X45200D01*
X35752Y30552D02*
X35800Y30600D01*
D60*
X53050Y13000D02*
X54000Y13950D01*
X52900Y20200D02*
X54000Y19100D01*
Y13950D02*
Y19100D01*
X41300Y26200D02*
Y28600D01*
Y21300D02*
Y26200D01*
Y21300D02*
X42400Y20200D01*
X52900D01*
X50500Y13000D02*
X53050D01*
X27200Y47900D02*
Y55700D01*
X30115Y58615D01*
X33886D01*
D61*
X36386D02*
D03*
X33886D02*
D03*
D62*
X20000Y60600D02*
D03*
X25000D02*
D03*
X27200Y47900D02*
D03*
X22500D02*
D03*
X17800D02*
D03*
D63*
X9200Y30100D02*
D03*
Y32600D02*
D03*
X12800Y50300D02*
D03*
X13260Y48840D02*
D03*
X15300Y50300D02*
D03*
X16600D02*
D03*
X17200Y3100D02*
D03*
X18900D02*
D03*
X38400Y47000D02*
D03*
X35900D02*
D03*
X12200Y40900D02*
D03*
X26100Y28100D02*
D03*
X31900Y36240D02*
D03*
Y33700D02*
D03*
X29400D02*
D03*
X24600Y34500D02*
D03*
X22100D02*
D03*
X44600Y39400D02*
D03*
X47100D02*
D03*
Y36900D02*
D03*
X48600Y51200D02*
D03*
X50100Y25800D02*
D03*
X47600D02*
D03*
Y23300D02*
D03*
X50100D02*
D03*
X38800Y58700D02*
D03*
X41300D02*
D03*
X42600Y54600D02*
D03*
X40100D02*
D03*
Y57100D02*
D03*
X42600D02*
D03*
X32000Y47000D02*
D03*
X34500D02*
D03*
X48600Y48700D02*
D03*
X46100D02*
D03*
Y51200D02*
D03*
X44600Y36900D02*
D03*
X61000Y26000D02*
D03*
X58500D02*
D03*
Y28500D02*
D03*
X61000D02*
D03*
Y29900D02*
D03*
X58500D02*
D03*
Y32400D02*
D03*
X61000D02*
D03*
X56100Y22000D02*
D03*
X53600D02*
D03*
Y24500D02*
D03*
X56100D02*
D03*
X30700Y10300D02*
D03*
X28200D02*
D03*
Y12800D02*
D03*
X30700D02*
D03*
X28400Y5000D02*
D03*
X30700D02*
D03*
X29400Y36200D02*
D03*
X20800Y28000D02*
D03*
X18300D02*
D03*
Y30500D02*
D03*
X20800D02*
D03*
X28600Y28100D02*
D03*
X26100Y30600D02*
D03*
X28600D02*
D03*
X24500Y24100D02*
D03*
X22000D02*
D03*
Y26600D02*
D03*
X24500D02*
D03*
X24600Y32000D02*
D03*
X22100D02*
D03*
X17900Y37000D02*
D03*
X20400D02*
D03*
X12800Y52800D02*
D03*
X15300D02*
D03*
X19100Y50300D02*
D03*
X16600Y52800D02*
D03*
X19100D02*
D03*
X15300Y46800D02*
D03*
X12800D02*
D03*
X15300Y49300D02*
D03*
X14700Y40900D02*
D03*
X12200Y43400D02*
D03*
X14700D02*
D03*
X17200Y4200D02*
D03*
X18900D02*
D03*
X16500Y9900D02*
D03*
X19000D02*
D03*
Y12400D02*
D03*
X16500D02*
D03*
X54600Y7900D02*
D03*
X57100D02*
D03*
X57300Y3300D02*
D03*
X54800D02*
D03*
X57300Y5900D02*
D03*
X54800D02*
D03*
X53500Y35400D02*
D03*
X56000D02*
D03*
X53500Y33500D02*
D03*
X56000D02*
D03*
M02*
