G04*
G04 #@! TF.GenerationSoftware,Altium Limited,Altium Designer,21.8.1 (53)*
G04*
G04 Layer_Color=8388736*
%FSLAX43Y43*%
%MOMM*%
G71*
G04*
G04 #@! TF.SameCoordinates,061CAFB7-BDB9-4B98-80DD-AB2B8D11B62C*
G04*
G04*
G04 #@! TF.FilePolarity,Positive*
G04*
G01*
G75*
%ADD13C,0.100*%
D13*
X21349Y78088D02*
G03*
X18451Y77312I-1449J-388D01*
G01*
X26700Y5900D02*
G03*
X26700Y5900I-1500J0D01*
G01*
X26950D02*
G03*
X26950Y5900I-1750J0D01*
G01*
X27800Y3800D02*
G03*
X27800Y3800I-500J0D01*
G01*
X23600D02*
G03*
X23600Y3800I-500J0D01*
G01*
Y8000D02*
G03*
X23600Y8000I-500J0D01*
G01*
X27800D02*
G03*
X27800Y8000I-500J0D01*
G01*
X26600Y13800D02*
G03*
X26600Y13800I-1500J0D01*
G01*
X26850D02*
G03*
X26850Y13800I-1750J0D01*
G01*
X23500Y15900D02*
G03*
X23500Y15900I-500J0D01*
G01*
X27700D02*
G03*
X27700Y15900I-500J0D01*
G01*
Y11700D02*
G03*
X27700Y11700I-500J0D01*
G01*
X23500D02*
G03*
X23500Y11700I-500J0D01*
G01*
X17500Y50800D02*
Y60000D01*
X20700Y50800D02*
Y53800D01*
X19300Y50800D02*
Y53800D01*
X20500D02*
X22500D01*
X20500Y53400D02*
Y53800D01*
X19500Y53400D02*
X20500D01*
X19500D02*
Y53800D01*
X17600D02*
X19500D01*
X17600Y60000D02*
Y60400D01*
X15900Y60000D02*
X17600D01*
X15900D02*
X17600D01*
Y53800D02*
Y60000D01*
X20000Y68300D02*
X22500D01*
X19500Y67800D02*
X20000Y68300D01*
X19500Y60900D02*
X22500D01*
X17300Y60400D02*
X22500D01*
X22100Y47300D02*
X22500D01*
X22100D02*
Y50800D01*
X17400Y47300D02*
X18200D01*
X17400D02*
Y50800D01*
X18200Y47300D02*
Y50800D01*
X15900D02*
X22500D01*
X15900D02*
Y60400D01*
X17300D01*
Y60900D01*
X19500D01*
Y67800D01*
X27500Y50800D02*
Y60000D01*
X24300Y50800D02*
Y53800D01*
X25700Y50800D02*
Y53800D01*
X22500D02*
X24500D01*
Y53400D02*
Y53800D01*
Y53400D02*
X25500D01*
Y53800D01*
X27400D01*
Y60000D02*
Y60400D01*
Y60000D02*
X29100D01*
X27400D02*
X29100D01*
X27400Y53800D02*
Y60000D01*
X22500Y68300D02*
X25000D01*
X25500Y67800D01*
X22500Y60900D02*
X25500D01*
X22500Y60400D02*
X27700D01*
X22500Y47300D02*
X22900D01*
Y50800D01*
X26800Y47300D02*
X27600D01*
Y50800D01*
X26800Y47300D02*
Y50800D01*
X22500D02*
X29100D01*
Y60400D01*
X27700D02*
X29100D01*
X27700D02*
Y60900D01*
X25500D02*
X27700D01*
X25500D02*
Y67800D01*
X18451Y77312D02*
X21153Y68300D01*
X21349Y78088D02*
X23662Y68300D01*
X38825Y49775D02*
X39400D01*
Y50225D01*
X38825D02*
X39400D01*
X36800Y48825D02*
X37375D01*
X36800D02*
Y49250D01*
Y50725D02*
X37375D01*
X36800D02*
Y51175D01*
X37375D01*
X37400Y48480D02*
Y51520D01*
Y48480D02*
X38800D01*
Y51520D01*
X37400D02*
X38800D01*
X37375Y51175D02*
X37400Y51200D01*
X37375Y50725D02*
X37400Y50700D01*
X37375Y48825D02*
X37400Y48800D01*
X38800Y49750D02*
X38825Y49775D01*
X38800Y50250D02*
X38825Y50225D01*
X36800Y49250D02*
X37375D01*
X22200Y2900D02*
X28200D01*
X22200D02*
Y8900D01*
X28200D01*
Y2900D02*
Y8900D01*
Y3250D02*
X28800D01*
Y4050D01*
X28200D02*
X28800D01*
X21600Y3250D02*
X22200D01*
X21600D02*
Y4050D01*
X22200D01*
X21600Y8550D02*
X22200D01*
X21600Y7750D02*
Y8550D01*
Y7750D02*
X22200D01*
X28200Y8550D02*
X28800D01*
Y7750D02*
Y8550D01*
X28200Y7750D02*
X28800D01*
Y3250D02*
X29700D01*
X28800Y4050D02*
X29700D01*
Y4025D02*
Y4050D01*
Y3250D02*
Y4025D01*
X28800Y7750D02*
X29700D01*
X28800Y8550D02*
X29700D01*
Y7750D02*
Y8525D01*
X20700Y7750D02*
X21600D01*
X20700Y8550D02*
X21600D01*
X20700Y7750D02*
Y8525D01*
Y3250D02*
X21600D01*
X20700Y4050D02*
X21600D01*
X20700Y3250D02*
Y4025D01*
X22100Y16800D02*
X28100D01*
Y10800D02*
Y16800D01*
X22100Y10800D02*
X28100D01*
X22100D02*
Y16800D01*
X21500Y16450D02*
X22100D01*
X21500Y15650D02*
Y16450D01*
Y15650D02*
X22100D01*
X28100Y16450D02*
X28700D01*
Y15650D02*
Y16450D01*
X28100Y15650D02*
X28700D01*
X28100Y11150D02*
X28700D01*
Y11950D01*
X28100D02*
X28700D01*
X21500Y11150D02*
X22100D01*
X21500D02*
Y11950D01*
X22100D01*
X20600Y16450D02*
X21500D01*
X20600Y15650D02*
X21500D01*
X20600D02*
Y15675D01*
Y16450D01*
Y11950D02*
X21500D01*
X20600Y11150D02*
X21500D01*
X20600Y11175D02*
Y11950D01*
X28700D02*
X29600D01*
X28700Y11150D02*
X29600D01*
Y11175D02*
Y11950D01*
X28700Y16450D02*
X29600D01*
X28700Y15650D02*
X29600D01*
Y15675D02*
Y16450D01*
X32200Y15400D02*
X32775D01*
X34200Y16400D02*
X34225Y16375D01*
X34200Y15900D02*
X34225Y15925D01*
X32775Y14975D02*
X32800Y14950D01*
X32775Y16875D02*
X32800Y16850D01*
X32775Y17325D02*
X32800Y17350D01*
Y17670D02*
X34200D01*
Y14630D02*
Y17670D01*
X32800Y14630D02*
X34200D01*
X32800D02*
Y17670D01*
X32200Y17325D02*
X32775D01*
X32200Y16875D02*
Y17325D01*
Y16875D02*
X32775D01*
X32200Y14975D02*
Y15400D01*
Y14975D02*
X32775D01*
X34225Y16375D02*
X34800D01*
Y15925D02*
Y16375D01*
X34225Y15925D02*
X34800D01*
X43950Y12600D02*
Y13175D01*
X42950Y14600D02*
X42975Y14625D01*
X43425D02*
X43450Y14600D01*
X44375Y13175D02*
X44400Y13200D01*
X42475Y13175D02*
X42500Y13200D01*
X42000D02*
X42025Y13175D01*
X41680Y13200D02*
Y14600D01*
X44720D01*
Y13200D02*
Y14600D01*
X41680Y13200D02*
X44720D01*
X42025Y12600D02*
Y13175D01*
Y12600D02*
X42475D01*
Y13175D01*
X43950Y12600D02*
X44375D01*
Y13175D01*
X42975Y14625D02*
Y15200D01*
X43425D01*
Y14625D02*
Y15200D01*
M02*
