G04*
G04 #@! TF.GenerationSoftware,Altium Limited,Altium Designer,21.8.1 (53)*
G04*
G04 Layer_Color=16711935*
%FSLAX43Y43*%
%MOMM*%
G71*
G04*
G04 #@! TF.SameCoordinates,061CAFB7-BDB9-4B98-80DD-AB2B8D11B62C*
G04*
G04*
G04 #@! TF.FilePolarity,Positive*
G04*
G01*
G75*
%ADD10C,0.200*%
%ADD12C,0.127*%
%ADD13C,0.100*%
%ADD66C,0.264*%
D10*
X38900Y1600D02*
G03*
X38900Y1600I-100J0D01*
G01*
X44300Y8600D02*
G03*
X44300Y8600I-100J0D01*
G01*
X53500Y8500D02*
G03*
X53500Y8500I-100J0D01*
G01*
X47530Y13260D02*
G03*
X47530Y13260I-100J0D01*
G01*
X47650Y26400D02*
G03*
X47650Y26400I-100J0D01*
G01*
X14800Y36960D02*
G03*
X14800Y36960I-100J0D01*
G01*
D12*
X38175Y2750D02*
Y4450D01*
X39425D01*
Y2750D02*
Y4450D01*
X38175Y2750D02*
X39425D01*
X45350Y7975D02*
Y9225D01*
Y7975D02*
X47050D01*
Y9225D01*
X45350D02*
X47050D01*
X52250Y7875D02*
Y9125D01*
X50550D02*
X52250D01*
X50550Y7875D02*
Y9125D01*
Y7875D02*
X52250D01*
X51430Y14300D02*
Y19300D01*
X46430Y14300D02*
Y19300D01*
X51430D01*
X46430Y14300D02*
X51430D01*
X46800Y27400D02*
Y31400D01*
X50800D01*
Y27400D02*
Y31400D01*
X46800Y27400D02*
X50800D01*
X15900Y38450D02*
X33900D01*
X15900D02*
Y44450D01*
Y18950D02*
Y38450D01*
Y18950D02*
X33900D01*
Y38450D01*
Y44450D01*
X15900D02*
X33900D01*
D13*
X54000Y20475D02*
X55400D01*
X54000Y18325D02*
X55400D01*
X41175Y17050D02*
Y18450D01*
X43325Y17050D02*
Y18450D01*
X38875Y15500D02*
Y16900D01*
X36725Y15500D02*
Y16900D01*
X32500Y56075D02*
X33900D01*
X32500Y53925D02*
X33900D01*
X32500Y51075D02*
X33900D01*
X32500Y48925D02*
X33900D01*
X38575Y55200D02*
Y56600D01*
X36425Y55200D02*
Y56600D01*
X41925Y49300D02*
Y50700D01*
X44075Y49300D02*
Y50700D01*
X17200Y6225D02*
X18600D01*
X17200Y8375D02*
X18600D01*
X49300Y39325D02*
X50700D01*
X49300Y37175D02*
X50700D01*
X45100Y35575D02*
X46500D01*
X45100Y33425D02*
X46500D01*
X35200Y2000D02*
Y4800D01*
X36800Y2000D02*
Y4800D01*
X35600Y1500D02*
X36400Y1500D01*
Y2000D01*
X35600Y1500D02*
Y2000D01*
X35700Y4300D02*
X36300D01*
X36000Y4000D02*
Y4600D01*
X35200Y4800D02*
X36800D01*
X35200Y2000D02*
X36800D01*
X36400Y4800D02*
Y5300D01*
X35600Y4800D02*
Y5300D01*
X36400Y5300D01*
X54000Y15975D02*
X55400D01*
X54000Y13825D02*
X55400D01*
X42825Y25400D02*
Y26800D01*
X44975Y25400D02*
Y26800D01*
X42825Y28000D02*
Y29400D01*
X44975Y28000D02*
Y29400D01*
X12775Y38175D02*
Y39575D01*
X10625Y38175D02*
Y39575D01*
X12000Y36175D02*
X13400D01*
X12000Y34025D02*
X13400D01*
X10725Y30700D02*
Y32100D01*
X12875Y30700D02*
Y32100D01*
X17100Y14025D02*
X18500D01*
X17100Y16175D02*
X18500D01*
X40525Y6000D02*
Y7400D01*
X42675Y6000D02*
Y7400D01*
X38175Y6000D02*
Y7400D01*
X36025Y6000D02*
Y7400D01*
X56400Y9625D02*
X57800D01*
X56400Y11775D02*
X57800D01*
X54000Y9625D02*
X55400D01*
X54000Y11775D02*
X55400D01*
X56675Y25625D02*
Y27025D01*
X54525Y25625D02*
Y27025D01*
Y28425D02*
Y29825D01*
X56675Y28425D02*
Y29825D01*
Y31025D02*
Y32425D01*
X54525Y31025D02*
Y32425D01*
X51975Y33800D02*
Y35200D01*
X49825Y33800D02*
Y35200D01*
D66*
X20400Y41200D02*
Y42046D01*
X20823Y42470D01*
X21246Y42046D01*
Y41200D01*
Y41835D01*
X20400D01*
X21670Y41200D02*
Y42470D01*
X22516Y41200D01*
Y42470D01*
X22939D02*
X23786D01*
X23362D01*
Y41200D01*
X25055Y42470D02*
X24209D01*
Y41200D01*
X25055D01*
X24209Y41835D02*
X24632D01*
X25478Y41200D02*
Y42470D01*
X26325Y41200D01*
Y42470D01*
X26748Y41200D02*
Y42470D01*
X27594Y41200D01*
Y42470D01*
X28018Y41200D02*
Y42046D01*
X28441Y42470D01*
X28864Y42046D01*
Y41200D01*
Y41835D01*
X28018D01*
M02*
