G04*
G04 #@! TF.GenerationSoftware,Altium Limited,Altium Designer,21.8.1 (53)*
G04*
G04 Layer_Color=16711935*
%FSLAX43Y43*%
%MOMM*%
G71*
G04*
G04 #@! TF.SameCoordinates,061CAFB7-BDB9-4B98-80DD-AB2B8D11B62C*
G04*
G04*
G04 #@! TF.FilePolarity,Negative*
G04*
G01*
G75*
%ADD34C,2.100*%
%ADD35O,3.100X2.600*%
%ADD36C,0.600*%
%ADD37C,0.700*%
%ADD38C,3.200*%
D34*
X36386Y58615D02*
D03*
X33886D02*
D03*
D35*
X20000Y60600D02*
D03*
X25000D02*
D03*
X27200Y47900D02*
D03*
X22500D02*
D03*
X17800D02*
D03*
D36*
X9200Y30100D02*
D03*
Y32600D02*
D03*
X12800Y50300D02*
D03*
X13260Y48840D02*
D03*
X15300Y50300D02*
D03*
X16600D02*
D03*
X17200Y3100D02*
D03*
X18900D02*
D03*
X38400Y47000D02*
D03*
X35900D02*
D03*
X12200Y40900D02*
D03*
X26100Y28100D02*
D03*
X31900Y36240D02*
D03*
Y33700D02*
D03*
X29400D02*
D03*
X24600Y34500D02*
D03*
X22100D02*
D03*
X44600Y39400D02*
D03*
X47100D02*
D03*
Y36900D02*
D03*
X48600Y51200D02*
D03*
X50100Y25800D02*
D03*
X47600D02*
D03*
Y23300D02*
D03*
X50100D02*
D03*
X38800Y58700D02*
D03*
X41300D02*
D03*
X42600Y54600D02*
D03*
X40100D02*
D03*
Y57100D02*
D03*
X42600D02*
D03*
X32000Y47000D02*
D03*
X34500D02*
D03*
X48600Y48700D02*
D03*
X46100D02*
D03*
Y51200D02*
D03*
X44600Y36900D02*
D03*
X61000Y26000D02*
D03*
X58500D02*
D03*
Y28500D02*
D03*
X61000D02*
D03*
Y29900D02*
D03*
X58500D02*
D03*
Y32400D02*
D03*
X61000D02*
D03*
X56100Y22000D02*
D03*
X53600D02*
D03*
Y24500D02*
D03*
X56100D02*
D03*
X30700Y10300D02*
D03*
X28200D02*
D03*
Y12800D02*
D03*
X30700D02*
D03*
X28400Y5000D02*
D03*
X30700D02*
D03*
X29400Y36200D02*
D03*
X20800Y28000D02*
D03*
X18300D02*
D03*
Y30500D02*
D03*
X20800D02*
D03*
X28600Y28100D02*
D03*
X26100Y30600D02*
D03*
X28600D02*
D03*
X24500Y24100D02*
D03*
X22000D02*
D03*
Y26600D02*
D03*
X24500D02*
D03*
X24600Y32000D02*
D03*
X22100D02*
D03*
X17900Y37000D02*
D03*
X20400D02*
D03*
X12800Y52800D02*
D03*
X15300D02*
D03*
X19100Y50300D02*
D03*
X16600Y52800D02*
D03*
X19100D02*
D03*
X15300Y46800D02*
D03*
X12800D02*
D03*
X15300Y49300D02*
D03*
X14700Y40900D02*
D03*
X12200Y43400D02*
D03*
X14700D02*
D03*
X17200Y4200D02*
D03*
X18900D02*
D03*
X16500Y9900D02*
D03*
X19000D02*
D03*
Y12400D02*
D03*
X16500D02*
D03*
X54600Y7900D02*
D03*
X57100D02*
D03*
X57300Y3300D02*
D03*
X54800D02*
D03*
X57300Y5900D02*
D03*
X54800D02*
D03*
X53500Y35400D02*
D03*
X56000D02*
D03*
X53500Y33500D02*
D03*
X56000D02*
D03*
D37*
X41300Y28600D02*
D03*
X50500Y13000D02*
D03*
X41300Y26200D02*
D03*
X52724Y14824D02*
D03*
X40700Y8400D02*
D03*
X45200Y17100D02*
D03*
Y16100D02*
D03*
X35800Y30600D02*
D03*
Y29300D02*
D03*
D38*
X62000Y62000D02*
D03*
X3000D02*
D03*
X62000Y3000D02*
D03*
X3000D02*
D03*
M02*
