G04*
G04 #@! TF.GenerationSoftware,Altium Limited,Altium Designer,21.8.1 (53)*
G04*
G04 Layer_Color=8388736*
%FSLAX43Y43*%
%MOMM*%
G71*
G04*
G04 #@! TF.SameCoordinates,061CAFB7-BDB9-4B98-80DD-AB2B8D11B62C*
G04*
G04*
G04 #@! TF.FilePolarity,Negative*
G04*
G01*
G75*
%ADD14R,1.500X1.300*%
%ADD15R,1.300X1.500*%
G04:AMPARAMS|DCode=16|XSize=0.7mm|YSize=1.2mm|CornerRadius=0.17mm|HoleSize=0mm|Usage=FLASHONLY|Rotation=90.000|XOffset=0mm|YOffset=0mm|HoleType=Round|Shape=RoundedRectangle|*
%AMROUNDEDRECTD16*
21,1,0.700,0.860,0,0,90.0*
21,1,0.360,1.200,0,0,90.0*
1,1,0.340,0.430,0.180*
1,1,0.340,0.430,-0.180*
1,1,0.340,-0.430,-0.180*
1,1,0.340,-0.430,0.180*
%
%ADD16ROUNDEDRECTD16*%
%ADD17R,0.700X0.700*%
%ADD18R,0.700X0.700*%
%ADD19R,0.850X0.700*%
G04:AMPARAMS|DCode=20|XSize=2.2mm|YSize=1.5mm|CornerRadius=0.33mm|HoleSize=0mm|Usage=FLASHONLY|Rotation=180.000|XOffset=0mm|YOffset=0mm|HoleType=Round|Shape=RoundedRectangle|*
%AMROUNDEDRECTD20*
21,1,2.200,0.840,0,0,180.0*
21,1,1.540,1.500,0,0,180.0*
1,1,0.660,-0.770,0.420*
1,1,0.660,0.770,0.420*
1,1,0.660,0.770,-0.420*
1,1,0.660,-0.770,-0.420*
%
%ADD20ROUNDEDRECTD20*%
%ADD21R,2.000X2.000*%
%ADD22R,0.500X1.450*%
%ADD23R,2.200X1.700*%
%ADD24R,1.900X2.000*%
G04:AMPARAMS|DCode=25|XSize=0.7mm|YSize=1.2mm|CornerRadius=0.17mm|HoleSize=0mm|Usage=FLASHONLY|Rotation=180.000|XOffset=0mm|YOffset=0mm|HoleType=Round|Shape=RoundedRectangle|*
%AMROUNDEDRECTD25*
21,1,0.700,0.860,0,0,180.0*
21,1,0.360,1.200,0,0,180.0*
1,1,0.340,-0.180,0.430*
1,1,0.340,0.180,0.430*
1,1,0.340,0.180,-0.430*
1,1,0.340,-0.180,-0.430*
%
%ADD25ROUNDEDRECTD25*%
G04:AMPARAMS|DCode=26|XSize=1.07mm|YSize=0.36mm|CornerRadius=0.083mm|HoleSize=0mm|Usage=FLASHONLY|Rotation=180.000|XOffset=0mm|YOffset=0mm|HoleType=Round|Shape=RoundedRectangle|*
%AMROUNDEDRECTD26*
21,1,1.070,0.195,0,0,180.0*
21,1,0.905,0.360,0,0,180.0*
1,1,0.165,-0.453,0.098*
1,1,0.165,0.453,0.098*
1,1,0.165,0.453,-0.098*
1,1,0.165,-0.453,-0.098*
%
%ADD26ROUNDEDRECTD26*%
G04:AMPARAMS|DCode=27|XSize=1.07mm|YSize=0.36mm|CornerRadius=0.083mm|HoleSize=0mm|Usage=FLASHONLY|Rotation=90.000|XOffset=0mm|YOffset=0mm|HoleType=Round|Shape=RoundedRectangle|*
%AMROUNDEDRECTD27*
21,1,1.070,0.195,0,0,90.0*
21,1,0.905,0.360,0,0,90.0*
1,1,0.165,0.098,0.453*
1,1,0.165,0.098,-0.453*
1,1,0.165,-0.098,-0.453*
1,1,0.165,-0.098,0.453*
%
%ADD27ROUNDEDRECTD27*%
%ADD28R,3.250X3.250*%
%ADD29R,0.380X0.890*%
%ADD30R,0.890X0.380*%
%ADD31R,1.000X1.600*%
%ADD32R,1.600X1.000*%
%ADD33R,1.000X1.000*%
%ADD34C,2.100*%
%ADD35O,3.100X2.600*%
%ADD36C,0.600*%
%ADD37C,0.700*%
%ADD38C,3.200*%
D14*
X54700Y20300D02*
D03*
Y18500D02*
D03*
X33200Y55900D02*
D03*
Y54100D02*
D03*
X33200Y50900D02*
D03*
Y49100D02*
D03*
X17900Y6400D02*
D03*
Y8200D02*
D03*
X50000Y39150D02*
D03*
Y37350D02*
D03*
X45800Y35400D02*
D03*
Y33600D02*
D03*
X54700Y15800D02*
D03*
Y14000D02*
D03*
X12700Y36000D02*
D03*
Y34200D02*
D03*
X17800Y14200D02*
D03*
Y16000D02*
D03*
X57100Y9800D02*
D03*
Y11600D02*
D03*
X54700Y9800D02*
D03*
Y11600D02*
D03*
D15*
X41350Y17750D02*
D03*
X43150D02*
D03*
X38700Y16200D02*
D03*
X36900D02*
D03*
X38400Y55900D02*
D03*
X36600D02*
D03*
X42100Y50000D02*
D03*
X43900D02*
D03*
X43000Y26100D02*
D03*
X44800D02*
D03*
X43000Y28700D02*
D03*
X44800D02*
D03*
X12600Y38875D02*
D03*
X10800D02*
D03*
X10900Y31400D02*
D03*
X12700D02*
D03*
X40700Y6700D02*
D03*
X42500D02*
D03*
X38000Y6700D02*
D03*
X36200D02*
D03*
X56500Y26325D02*
D03*
X54700D02*
D03*
Y29125D02*
D03*
X56500D02*
D03*
Y31725D02*
D03*
X54700D02*
D03*
X51800Y34500D02*
D03*
X50000D02*
D03*
D16*
X39300Y50000D02*
D03*
X36900Y49050D02*
D03*
Y50950D02*
D03*
X32300Y17100D02*
D03*
Y15200D02*
D03*
X34700Y16150D02*
D03*
D17*
X38800Y2500D02*
D03*
Y4700D02*
D03*
D18*
X47300Y8600D02*
D03*
X45100D02*
D03*
X50300Y8500D02*
D03*
X52500D02*
D03*
D19*
X36000Y4670D02*
D03*
Y2130D02*
D03*
D20*
X29500Y3638D02*
D03*
Y8138D02*
D03*
X20900Y3638D02*
D03*
Y8138D02*
D03*
X20800Y16062D02*
D03*
Y11562D02*
D03*
X29400Y16062D02*
D03*
Y11562D02*
D03*
D21*
X50200Y2325D02*
D03*
X47800D02*
D03*
D22*
X48350Y5000D02*
D03*
X49650D02*
D03*
X50300D02*
D03*
X49000D02*
D03*
X47700D02*
D03*
D23*
X45900Y4875D02*
D03*
X52100D02*
D03*
D24*
X45200Y2325D02*
D03*
X52800D02*
D03*
D25*
X42250Y12700D02*
D03*
X44150D02*
D03*
X43200Y15100D02*
D03*
D26*
X51300Y15300D02*
D03*
Y15800D02*
D03*
Y16300D02*
D03*
Y16800D02*
D03*
Y17300D02*
D03*
Y17800D02*
D03*
Y18300D02*
D03*
X46560D02*
D03*
Y17800D02*
D03*
Y17300D02*
D03*
Y16800D02*
D03*
Y16300D02*
D03*
Y15800D02*
D03*
Y15300D02*
D03*
D27*
X47430Y14430D02*
D03*
X47930D02*
D03*
X48430D02*
D03*
X48930D02*
D03*
X49430D02*
D03*
X49930D02*
D03*
X50430D02*
D03*
Y19170D02*
D03*
X49930D02*
D03*
X49430D02*
D03*
X48930D02*
D03*
X48430D02*
D03*
X47930D02*
D03*
X47430D02*
D03*
D28*
X48930Y16800D02*
D03*
D29*
X47550Y27430D02*
D03*
X48050D02*
D03*
X48550D02*
D03*
X49050D02*
D03*
X49550D02*
D03*
X50050D02*
D03*
Y31370D02*
D03*
X49550D02*
D03*
X49050D02*
D03*
X48550D02*
D03*
X48050D02*
D03*
X47550D02*
D03*
D30*
X50770Y28150D02*
D03*
Y28650D02*
D03*
Y29150D02*
D03*
Y29650D02*
D03*
Y30150D02*
D03*
Y30650D02*
D03*
X46830D02*
D03*
Y30150D02*
D03*
Y29650D02*
D03*
Y29150D02*
D03*
Y28650D02*
D03*
Y28150D02*
D03*
D31*
X31885Y19200D02*
D03*
X30615D02*
D03*
X29345D02*
D03*
X28075D02*
D03*
X26805D02*
D03*
X25535D02*
D03*
X24265D02*
D03*
X22995D02*
D03*
X21725D02*
D03*
X20455D02*
D03*
X19185D02*
D03*
X17915D02*
D03*
D32*
X33650Y36960D02*
D03*
Y35690D02*
D03*
Y34420D02*
D03*
Y33150D02*
D03*
Y31880D02*
D03*
Y30610D02*
D03*
Y29340D02*
D03*
Y28070D02*
D03*
Y26800D02*
D03*
Y25530D02*
D03*
Y24260D02*
D03*
Y22990D02*
D03*
Y21720D02*
D03*
Y20450D02*
D03*
X16150D02*
D03*
Y21720D02*
D03*
Y22990D02*
D03*
Y24260D02*
D03*
Y25530D02*
D03*
Y26800D02*
D03*
Y28070D02*
D03*
Y29340D02*
D03*
Y30610D02*
D03*
Y31880D02*
D03*
Y33150D02*
D03*
Y34420D02*
D03*
Y35690D02*
D03*
Y36960D02*
D03*
D33*
X24800Y30640D02*
D03*
X23400D02*
D03*
X22000D02*
D03*
X24800Y27840D02*
D03*
X23400D02*
D03*
X22000D02*
D03*
X24800Y29240D02*
D03*
X22000D02*
D03*
X23400D02*
D03*
D34*
X36386Y58615D02*
D03*
X33886D02*
D03*
D35*
X20000Y60600D02*
D03*
X25000D02*
D03*
X27200Y47900D02*
D03*
X22500D02*
D03*
X17800D02*
D03*
D36*
X9200Y30100D02*
D03*
Y32600D02*
D03*
X12800Y50300D02*
D03*
X13260Y48840D02*
D03*
X15300Y50300D02*
D03*
X16600D02*
D03*
X17200Y3100D02*
D03*
X18900D02*
D03*
X38400Y47000D02*
D03*
X35900D02*
D03*
X12200Y40900D02*
D03*
X26100Y28100D02*
D03*
X31900Y36240D02*
D03*
Y33700D02*
D03*
X29400D02*
D03*
X24600Y34500D02*
D03*
X22100D02*
D03*
X44600Y39400D02*
D03*
X47100D02*
D03*
Y36900D02*
D03*
X48600Y51200D02*
D03*
X50100Y25800D02*
D03*
X47600D02*
D03*
Y23300D02*
D03*
X50100D02*
D03*
X38800Y58700D02*
D03*
X41300D02*
D03*
X42600Y54600D02*
D03*
X40100D02*
D03*
Y57100D02*
D03*
X42600D02*
D03*
X32000Y47000D02*
D03*
X34500D02*
D03*
X48600Y48700D02*
D03*
X46100D02*
D03*
Y51200D02*
D03*
X44600Y36900D02*
D03*
X61000Y26000D02*
D03*
X58500D02*
D03*
Y28500D02*
D03*
X61000D02*
D03*
Y29900D02*
D03*
X58500D02*
D03*
Y32400D02*
D03*
X61000D02*
D03*
X56100Y22000D02*
D03*
X53600D02*
D03*
Y24500D02*
D03*
X56100D02*
D03*
X30700Y10300D02*
D03*
X28200D02*
D03*
Y12800D02*
D03*
X30700D02*
D03*
X28400Y5000D02*
D03*
X30700D02*
D03*
X29400Y36200D02*
D03*
X20800Y28000D02*
D03*
X18300D02*
D03*
Y30500D02*
D03*
X20800D02*
D03*
X28600Y28100D02*
D03*
X26100Y30600D02*
D03*
X28600D02*
D03*
X24500Y24100D02*
D03*
X22000D02*
D03*
Y26600D02*
D03*
X24500D02*
D03*
X24600Y32000D02*
D03*
X22100D02*
D03*
X17900Y37000D02*
D03*
X20400D02*
D03*
X12800Y52800D02*
D03*
X15300D02*
D03*
X19100Y50300D02*
D03*
X16600Y52800D02*
D03*
X19100D02*
D03*
X15300Y46800D02*
D03*
X12800D02*
D03*
X15300Y49300D02*
D03*
X14700Y40900D02*
D03*
X12200Y43400D02*
D03*
X14700D02*
D03*
X17200Y4200D02*
D03*
X18900D02*
D03*
X16500Y9900D02*
D03*
X19000D02*
D03*
Y12400D02*
D03*
X16500D02*
D03*
X54600Y7900D02*
D03*
X57100D02*
D03*
X57300Y3300D02*
D03*
X54800D02*
D03*
X57300Y5900D02*
D03*
X54800D02*
D03*
X53500Y35400D02*
D03*
X56000D02*
D03*
X53500Y33500D02*
D03*
X56000D02*
D03*
D37*
X41300Y28600D02*
D03*
X50500Y13000D02*
D03*
X41300Y26200D02*
D03*
X52724Y14824D02*
D03*
X40700Y8400D02*
D03*
X45200Y17100D02*
D03*
Y16100D02*
D03*
X35800Y30600D02*
D03*
Y29300D02*
D03*
D38*
X62000Y62000D02*
D03*
X3000D02*
D03*
X62000Y3000D02*
D03*
X3000D02*
D03*
M02*
