G04*
G04 #@! TF.GenerationSoftware,Altium Limited,Altium Designer,21.8.1 (53)*
G04*
G04 Layer_Color=32768*
%FSLAX43Y43*%
%MOMM*%
G71*
G04*
G04 #@! TF.SameCoordinates,061CAFB7-BDB9-4B98-80DD-AB2B8D11B62C*
G04*
G04*
G04 #@! TF.FilePolarity,Positive*
G04*
G01*
G75*
%ADD13C,0.100*%
%ADD65C,0.050*%
D13*
X35100Y1000D02*
Y5800D01*
X36900Y1000D02*
Y5800D01*
X35100D02*
X36900D01*
X35100Y1000D02*
X36900D01*
X36000Y2900D02*
Y3900D01*
X35500Y3400D02*
X36500D01*
D65*
X37925Y1950D02*
Y5250D01*
X39675D01*
Y1950D02*
Y5250D01*
X37925Y1950D02*
X39675D01*
X44550Y7725D02*
Y9475D01*
Y7725D02*
X47850D01*
Y9475D01*
X44550D02*
X47850D01*
X53050Y7625D02*
Y9375D01*
X49750D02*
X53050D01*
X49750Y7625D02*
Y9375D01*
Y7625D02*
X53050D01*
X52035Y13695D02*
Y19905D01*
X45825Y13695D02*
Y19905D01*
Y13695D02*
X52035D01*
X45825Y19905D02*
X52035D01*
X46185Y26785D02*
Y32015D01*
X51415D01*
Y26785D02*
Y32015D01*
X46185Y26785D02*
X51415D01*
X15150Y18200D02*
X34650D01*
Y44700D01*
X15150D02*
X34650D01*
X15150Y18200D02*
Y44700D01*
M02*
