M48
;Layer_Color=9474304
;FILE_FORMAT=4:4
METRIC,LZ
;TYPE=PLATED
T1F00S00C0.4000
T2F00S00C1.0000
T3F00S00C1.8000
T4F00S00C3.2000
%
T01
X00172Y00031
Y00042
X00189
Y00031
X0019Y00099
X00165
Y00124
X0019
X00282Y00128
Y00103
X00307
Y00128
Y0005
X00284
X00407Y00084
X00505Y0013
X00527244Y00148239
X00546Y00079
X00548Y00059
X00573
X00571Y00079
X00573Y00033
X00548
X00536Y0022
X00561
Y00245
X00536
X00585Y0026
X0061
Y00285
Y00299
X00585
Y00285
Y00324
X0061
X0056Y00335
Y00354
X00535
Y00335
X00471Y00369
Y00394
X00446
Y00369
X00413Y00286
Y00262
X00476Y00258
X00501
Y00233
X00476
X00452Y00171
Y00161
X00358Y00293
Y00306
X00319Y00337
X00294
Y00362
X00319Y00362404
X00286Y00306
Y00281
X00261
Y00306
X00246Y0032
Y00345
X00221
Y0032
X00208Y00305
Y0028
X00183
Y00305
X00179Y0037
X00204
X00147Y00409
Y00434
X00153Y00468
Y00493
Y00503
X00166
X00191
Y00528
X00166
X00153
X0032Y0047
X00345
X00359
X00384
X00401Y00546
X00426
X00461Y00512
X00486
Y00487
X00461
X00245Y00266
Y00241
X0022
Y00266
X00092Y00301
Y00326
X00122Y00409
Y00434
X00128Y00468
X00132596Y00488404
X00128Y00503
Y00528
X00401Y00571
X00426
X00413Y00587
X00388
T02
X00338859Y00586146
X00363859
T03
X00178Y00479
X00225
X00272
X0025Y00606
X002
T04
X0003Y0003
X0062
X0003Y0062
X0062
M30
